<?xml version="1.0" encoding="UTF-8" standalone="no"?>
<!--
qml-component-explorer, a tool for listing native QML components and their attributes
    Copyright (C) 2026  Lukas Winter
 is licensed under GPL-3.0 (see LICENSE file)
-->
<!-- Created with Inkscape (http://www.inkscape.org/) -->

<svg
   width="48"
   height="48"
   viewBox="0 0 48 48"
   version="1.1"
   id="svg1"
   xmlns="http://www.w3.org/2000/svg"
   xmlns:svg="http://www.w3.org/2000/svg">
  <defs
     id="defs1" />
  <g
     id="layer5"
     style="display:inline">
    <path
       d="m 10.634396,35.458344 c -0.556043,0 -1.0318877,-0.192476 -1.4275336,-0.577429 -0.3849527,-0.395646 -0.5774291,-0.87149 -0.5774291,-1.427533 0,-0.566736 0.1924764,-1.04258 0.5774291,-1.427533 0.3956459,-0.384953 0.8714906,-0.57743 1.4275336,-0.57743 0.566735,0 1.04258,0.192477 1.427533,0.57743 0.384953,0.384953 0.577429,0.860797 0.577429,1.427533 0,0.556043 -0.192476,1.031887 -0.577429,1.427533 -0.384953,0.384953 -0.860798,0.577429 -1.427533,0.577429 z M 23.65863,18.247748 v 2.341796 H 14.483923 V 18.247748 Z M 17.499386,35.185669 V 15.232285 c 0,-0.812678 0.181783,-1.513078 0.54535,-2.1012 0.363567,-0.588122 0.876837,-1.04258 1.539811,-1.363374 0.673667,-0.320794 1.464959,-0.481191 2.373875,-0.481191 h 1.05862 0.641588 v 2.341796 h -0.657628 -0.785945 c -0.716439,0 -1.22971,0.15505 -1.539811,0.465151 -0.299407,0.310101 -0.449111,0.828717 -0.449111,1.55585 V 35.185669 Z M 26.674092,24.67066 c 0,-1.817833 0.165744,-3.689131 0.497231,-5.613894 0.331487,-1.935457 0.785945,-3.774675 1.363374,-5.517656 0.588123,-1.742981 1.26179,-3.240019 2.021002,-4.4911152 h 2.66259 c -0.780599,1.5611972 -1.454266,3.2400192 -2.021002,5.0364652 -0.566736,1.785753 -1.005154,3.587545 -1.315255,5.405378 -0.299408,1.807139 -0.449112,3.53408 -0.449112,5.180822 0,1.486345 0.133664,2.983384 0.400993,4.491115 0.278021,1.507732 0.695053,3.063583 1.251096,4.667552 0.556043,1.60397 1.267136,3.288138 2.13328,5.052505 h -2.66259 C 29.29391,36.721819 28.331528,34.433489 27.668554,32.016841 27.005579,29.600194 26.674092,27.151467 26.674092,24.67066 Z m 8.340644,14.211172 c 0.866143,-1.764367 1.577237,-3.448535 2.13328,-5.052505 0.556043,-1.603969 0.967728,-3.15982 1.235056,-4.667552 0.278021,-1.507731 0.417032,-3.00477 0.417032,-4.491115 0,-1.646742 -0.15505,-3.373683 -0.465151,-5.180822 -0.299407,-1.817833 -0.732479,-3.619625 -1.299215,-5.405378 -0.566736,-1.796446 -1.240403,-3.475268 -2.021002,-5.0364652 h 2.66259 c 0.759212,1.2510962 1.427533,2.7481342 2.004962,4.4911152 0.588122,1.742981 1.047927,3.582199 1.379414,5.517656 0.331487,1.924763 0.49723,3.796061 0.49723,5.613894 0,2.480807 -0.331487,4.929534 -0.994461,7.346181 -0.652281,2.416648 -1.614662,4.704978 -2.887145,6.864991 z"
       id="text8"
       style="font-size:32.8493px;font-family:System-ui;-inkscape-font-specification:System-ui;stroke-width:0.685435"
       aria-label=".f()" />
  </g>
</svg>
