<?xml version="1.0" encoding="UTF-8" standalone="no"?>
<!--
qml-component-explorer, a tool for listing native QML components and their attributes
    Copyright (C) 2026  Lukas Winter
 is licensed under GPL-3.0 (see LICENSE file)
-->
<!-- Created with Inkscape (http://www.inkscape.org/) -->

<svg
   width="48"
   height="48"
   viewBox="0 0 48 48"
   version="1.1"
   id="svg1"
   xmlns="http://www.w3.org/2000/svg"
   xmlns:svg="http://www.w3.org/2000/svg">
  <defs
     id="defs1" />
  <g
     id="layer4"
     style="display:inline">
    <path
       d="m 24.126067,30.565115 v 3.71075 q -3.710749,2.024045 -8.568457,2.024045 -3.946888,0 -6.6962157,-1.585502 -2.7493278,-1.585502 -4.3516967,-4.368564 -1.602369,-2.783062 -1.602369,-6.021534 0,-5.144448 3.660148,-8.652792 3.6770154,-3.508345 9.0576014,-3.508345 3.710749,0 8.247983,1.93971 v 3.626414 q -4.132425,-2.361386 -8.079313,-2.361386 -4.04809,0 -6.7299492,2.56379 -2.6649926,2.546924 -2.6649926,6.392609 0,3.87942 2.6312585,6.375742 2.6312583,2.496322 6.7299493,2.496322 4.284229,0 8.366053,-2.631259 z M 27.921152,12.46678 h 3.069801 v 23.563257 h -3.069801 z m 6.746818,22.450032 v -3.30594 q 1.298762,0.91082 2.648125,1.4843 1.366231,0.556612 2.293918,0.556612 0.961421,0 1.65297,-0.472277 0.691549,-0.472277 0.691549,-1.130092 0,-0.674682 -0.45541,-1.113225 -0.438544,-0.45541 -1.922843,-1.298762 -2.9686,-1.65297 -3.896287,-2.816796 -0.91082,-1.180693 -0.91082,-2.56379 0,-1.787907 1.383097,-2.917998 1.399965,-1.130092 3.59268,-1.130092 2.277051,0 4.672171,1.281895 v 3.036068 q -2.732461,-1.652971 -4.469766,-1.652971 -0.893953,0 -1.450566,0.387942 -0.539745,0.371075 -0.539745,0.995156 0,0.539745 0.489144,1.028889 0.506011,0.489145 1.754172,1.180693 l 1.096358,0.624081 q 3.87942,2.192715 3.87942,4.857708 0,1.905976 -1.501167,3.13727 -1.4843,1.214427 -3.828819,1.214427 -1.383097,0 -2.462588,-0.28674 -1.07949,-0.303607 -2.715593,-1.096358 z"
       id="text2"
       style="font-size:34.5437px;font-family:'Gill Sans MT';-inkscape-font-specification:'Gill Sans MT';stroke-width:0.72079"
       aria-label="Cls" />
  </g>
</svg>
