<?xml version="1.0" encoding="UTF-8" standalone="no"?>
<!--
qml-component-explorer, a tool for listing native QML components and their attributes
    Copyright (C) 2026  Lukas Winter
 is licensed under GPL-3.0 (see LICENSE file)
-->
<!-- Created with Inkscape (http://www.inkscape.org/) -->

<svg
   width="48"
   height="48"
   viewBox="0 0 48 48"
   version="1.1"
   id="svg1"
   xmlns="http://www.w3.org/2000/svg"
   xmlns:svg="http://www.w3.org/2000/svg">
  <defs
     id="defs1" />
  <g
     id="layer6"
     style="display:inline">
    <path
       id="path11"
       style="font-size:32.8493px;font-family:System-ui;-inkscape-font-specification:System-ui;stroke-width:0.685435"
       d="m 30.556641,9.0488281 c -0.759212,1.2510959 -1.433362,2.7472529 -2.021485,4.4902339 -0.302288,0.912463 -0.571755,1.851195 -0.80664,2.816407 l 4.09375,-4.087891 c 2.12e-4,-5.69e-4 -2.13e-4,-0.0014 0,-0.002 0.419345,-1.122787 0.885494,-2.194818 1.396484,-3.2167969 z m 4.458984,0 c 0.0031,0.00619 0.0047,0.011389 0.0078,0.017578 l 0.01953,-0.017578 z M 21.958984,11.287109 c -0.908916,0 -1.701333,0.159675 -2.375,0.480469 -0.662974,0.320794 -1.175495,0.775159 -1.539062,1.363281 C 17.681355,13.718981 17.5,14.419744 17.5,15.232422 v 3.015625 h -3.015625 v 2.341797 H 17.5 v 5.988281 l 2.726562,-2.724609 v -3.263672 h 3.265626 l 0.166015,-0.166016 v -2.175781 h -3.431641 v -2.599609 c 0,-0.727134 0.149812,-1.244587 0.449219,-1.554688 0.310101,-0.310101 0.822624,-0.464844 1.539063,-0.464844 h 0.787109 0.65625 v -2.341797 h -0.640625 z m 17.695313,2.166016 -2.166016,2.164063 c 1.69e-4,6.17e-4 -1.68e-4,0.0013 0,0.002 0.350162,1.281844 0.631882,2.572888 0.845703,3.871093 0.310101,1.807139 0.466797,3.532946 0.466797,5.179688 0,1.486345 -0.139947,2.984456 -0.417969,4.492187 -0.267327,1.507732 -0.678331,3.064 -1.234374,4.667969 -0.556044,1.60397 -1.26667,3.286414 -2.132813,5.050781 h 2.662109 c 1.272483,-2.160013 2.234438,-4.446633 2.886719,-6.863281 0.662974,-2.416647 0.994141,-4.866849 0.994141,-7.347656 0,-1.817833 -0.164607,-3.688518 -0.496094,-5.613281 -0.331487,-1.935457 -0.792737,-3.774597 -1.380859,-5.517579 -0.0095,-0.02882 -0.01775,-0.05725 -0.02734,-0.08594 z m -10.203125,10.203125 -2.72461,2.722656 c 0.117521,1.898101 0.431116,3.778582 0.941407,5.638672 0.662974,2.416648 1.626883,4.703268 2.888672,6.863281 h 2.662109 c -0.866144,-1.764367 -1.57677,-3.446811 -2.132812,-5.050781 -0.556043,-1.603969 -0.973933,-3.160237 -1.251954,-4.667969 -0.267329,-1.507731 -0.40039,-3.005842 -0.40039,-4.492187 0,-0.334636 0.0052,-0.672413 0.01758,-1.013672 z m -18.816406,7.792969 c -0.556043,0 -1.0320889,0.191219 -1.4277348,0.576172 -0.3849527,0.384953 -0.578125,0.860998 -0.578125,1.427734 1e-7,0.552528 0.1902119,1.02577 0.5703126,1.419922 l 2.8554692,-2.855469 c -0.383524,-0.379589 -0.857149,-0.568359 -1.419922,-0.568359 z m 9.591796,1.429687 -2.30664,2.306641 h 2.30664 z" />
    <path
       id="path10"
       style="display:inline;fill:#000000;stroke-width:1.00157"
       d="M 40.550781,5.1074219 5.6464844,39.984375 8.5917969,42.951172 43.494141,8.0507813 Z" />
  </g>
</svg>
