<?xml version="1.0" encoding="UTF-8" standalone="no"?>
<!--
qml-component-explorer, a tool for listing native QML components and their attributes
    Copyright (C) 2026  Lukas Winter
 is licensed under GPL-3.0 (see LICENSE file)
-->
<!-- Created with Inkscape (http://www.inkscape.org/) -->

<svg
   width="48"
   height="48"
   viewBox="0 0 48 48"
   version="1.1"
   id="svg1"
   xmlns="http://www.w3.org/2000/svg"
   xmlns:svg="http://www.w3.org/2000/svg">
  <defs
     id="defs1" />
  <g
     id="g5"
     style="display:inline">
    <path
       id="path8"
       style="font-size:34.5437px;font-family:'Gill Sans MT';-inkscape-font-specification:'Gill Sans MT';display:inline;stroke-width:0.72079"
       d="m 15.625,12.164062 c -3.587057,1e-6 -6.605297,1.168916 -9.0566406,3.507813 -2.4400987,2.338896 -3.6601563,5.222712 -3.6601563,8.652344 0,2.158981 0.5333165,4.166109 1.6015625,6.021484 1.068246,1.855375 2.5186773,3.312139 4.3515625,4.369141 0.1045945,0.06032 0.211165,0.118905 0.3183594,0.175781 l 2.4707035,-2.46875 c -0.969778,-0.410697 -1.843533,-0.98497 -2.6210941,-1.722656 -1.7541724,-1.664215 -2.6308594,-3.78872 -2.6308594,-6.375 0,-2.56379 0.8893539,-4.694629 2.6660156,-6.392578 1.7879059,-1.709194 4.0297889,-2.564453 6.7285159,-2.564453 2.631258,0 5.325128,0.78707 8.080078,2.361328 v -3.625 C 20.848224,12.810376 18.098833,12.164062 15.625,12.164062 Z m 12.296875,0.302735 v 3.697265 l 3.068359,-3.066406 v -0.630859 z m 11.822266,7.742187 c -1.46181,0 -2.658487,0.375512 -3.591797,1.128907 -0.922065,0.753394 -1.382813,1.727983 -1.382813,2.919921 0,0.922065 0.302943,1.775372 0.910157,2.5625 0.618457,0.775885 1.917417,1.714427 3.896484,2.816407 0.989533,0.562234 1.631465,0.995221 1.923828,1.298828 0.303607,0.292362 0.455078,0.663493 0.455078,1.113281 0,0.438543 -0.230373,0.816008 -0.691406,1.13086 -0.461033,0.314851 -1.01335,0.472656 -1.654297,0.472656 -0.618458,0 -1.382148,-0.185566 -2.292969,-0.556641 -0.899575,-0.38232 -1.782596,-0.877162 -2.648437,-1.484375 v 3.304688 c 1.090735,0.5285 1.995184,0.895251 2.714843,1.097656 0.719661,0.19116 1.540826,0.287109 2.462891,0.287109 1.563013,0 2.840545,-0.405225 3.830078,-1.214843 1.000778,-0.820863 1.5,-1.868022 1.5,-3.138672 0,-1.776662 -1.292626,-3.395612 -3.878906,-4.857422 l -1.095703,-0.623047 c -0.832107,-0.461032 -1.418519,-0.855544 -1.75586,-1.181641 -0.326095,-0.326096 -0.488281,-0.667514 -0.488281,-1.027344 0,-0.416053 0.179233,-0.74871 0.539063,-0.996093 0.371075,-0.258628 0.855203,-0.388672 1.451172,-0.388672 1.158203,0 2.649062,0.552316 4.470703,1.654297 v -3.03711 c -1.596747,-0.854596 -3.155794,-1.28125 -4.673828,-1.28125 z m -8.753907,1.908204 -3.068359,3.068359 v 10.84375 h 3.068359 z m -6.863281,8.447265 c -1.072614,0.691437 -2.156421,1.24712 -3.25,1.666016 h -0.002 l -4.03125,4.033203 c 2.714099,-0.157024 5.141962,-0.820332 7.283203,-1.988281 z" />
    <path
       id="path6"
       style="display:inline;fill:#000000;stroke-width:1.00157"
       d="M 40.550781,5.1074219 5.6464844,39.984375 8.5917969,42.951172 43.494141,8.0507813 Z" />
  </g>
</svg>
