<?xml version="1.0" encoding="UTF-8" standalone="no"?>
<!--
qml-component-explorer, a tool for listing native QML components and their attributes
    Copyright (C) 2026  Lukas Winter
 is licensed under GPL-3.0 (see LICENSE file)
-->
<!-- Created with Inkscape (http://www.inkscape.org/) -->

<svg
   width="48"
   height="48"
   viewBox="0 0 48 48"
   version="1.1"
   id="svg1"
   xmlns="http://www.w3.org/2000/svg"
   xmlns:svg="http://www.w3.org/2000/svg">
  <defs
     id="defs1" />
  <g
     id="g14"
     style="display:inline">
    <path
       id="text13"
       style="font-style:normal;font-variant:normal;font-weight:normal;font-stretch:normal;font-size:40.0942px;font-family:'Gill Sans MT';-inkscape-font-specification:'Gill Sans MT';writing-mode:lr-tb;direction:ltr;fill:#000000;fill-opacity:1;stroke-width:0.836608"
       d="m 21.798828,12.558594 v 9.722656 l 3.642578,-3.638672 v -2.755859 h 2.525391 c 0.07763,0 0.15459,0.0011 0.230469,0.002 l 3.023437,-3.021484 c -0.96673,-0.206339 -2.0247,-0.308594 -3.175781,-0.308594 z m 14.947266,3.800781 -2.65625,2.65625 c 2.39e-4,5.58e-4 -2.39e-4,0.0014 0,0.002 0.328558,0.766812 0.49414,1.622679 0.49414,2.566406 0,1.82721 -0.535246,3.320839 -1.605468,4.482422 -1.057172,1.161584 -2.421206,1.742188 -4.091797,1.742188 -1.028852,0 -2.01851,-0.205149 -2.970703,-0.617188 l -4.117188,4.115235 V 39.752 h 3.642578 v -9.632812 c 1.39651,0.509008 2.667875,0.763671 3.816406,0.763671 2.597248,0 4.731753,-0.867666 6.402344,-2.603515 1.683643,-1.735849 2.525391,-3.95459 2.525391,-6.65625 0,-2.094032 -0.479746,-3.84914 -1.439453,-5.263672 z m -21.66211,9.84375 c -0.665626,0 -1.226791,0.228744 -1.683593,0.685547 -0.456803,0.456802 -0.685547,1.017967 -0.685547,1.683594 0,0.652574 0.228744,1.20078 0.685547,1.644531 0.07862,0.07637 0.161286,0.147708 0.246093,0.210937 l 3.333985,-3.330078 c -0.05919,-0.0721 -0.123896,-0.14145 -0.19336,-0.208984 -0.469854,-0.456803 -1.037498,-0.685547 -1.703125,-0.685547 z" />
    <path
       id="path15"
       style="display:inline;fill:#000000;stroke-width:1.00157"
       d="M 40.550781,5.1074219 5.6464844,39.984375 8.5917969,42.951172 43.494141,8.0507813 Z" />
  </g>
</svg>
