<?xml version="1.0" encoding="UTF-8" standalone="no"?>
<!--
qml-component-explorer, a tool for listing native QML components and their attributes
    Copyright (C) 2026  Lukas Winter
 is licensed under GPL-3.0 (see LICENSE file)
-->
<!-- Created with Inkscape (http://www.inkscape.org/) -->

<svg
   width="48"
   height="48"
   viewBox="0 0 48 48"
   version="1.1"
   id="svg1"
   xmlns="http://www.w3.org/2000/svg"
   xmlns:svg="http://www.w3.org/2000/svg">
  <defs
     id="defs1" />
  <g
     id="g16"
     style="display:inline">
    <path
       id="text16"
       style="font-style:normal;font-variant:normal;font-weight:bold;font-stretch:normal;font-size:31.5869px;font-family:Carlito;-inkscape-font-specification:'Carlito Bold';writing-mode:lr-tb;direction:ltr;fill:#000000;fill-opacity:1;stroke-width:0.659094"
       d="M 13.583984 10.890625 C 12.617458 10.890625 11.779784 11.012993 11.070312 11.259766 C 10.360841 11.506538 9.7751987 11.856177 9.3125 12.308594 C 8.8498013 12.750728 8.5055051 13.286849 8.2792969 13.914062 C 8.0633708 14.541276 7.9550781 15.240554 7.9550781 16.011719 C 7.9550781 16.494982 7.987135 16.972332 8.0488281 17.445312 C 8.1105213 17.908011 8.1760715 18.371286 8.2480469 18.833984 C 8.3303044 19.296683 8.4031506 19.758004 8.4648438 20.220703 C 8.5368191 20.67312 8.5722656 21.131051 8.5722656 21.59375 C 8.5722656 22.190117 8.4338692 22.678153 8.15625 23.058594 C 7.8889129 23.428753 7.4470098 23.615234 6.8300781 23.615234 L 6.8300781 25.882812 C 7.4470098 25.882812 7.8889129 26.072684 8.15625 26.453125 C 8.4338692 26.823284 8.5722656 27.305976 8.5722656 27.902344 C 8.5722656 28.365042 8.5368191 28.828317 8.4648438 29.291016 C 8.4031506 29.743432 8.3303044 30.199411 8.2480469 30.662109 C 8.1760715 31.114526 8.1105213 31.5778 8.0488281 32.050781 C 7.987135 32.51348 7.9550781 32.982097 7.9550781 33.455078 C 7.9550781 34.226243 8.0633708 34.925521 8.2792969 35.552734 C 8.2999344 35.610895 8.321144 35.667989 8.34375 35.724609 L 11.396484 32.675781 C 11.408065 32.500608 11.423788 32.327338 11.441406 32.158203 C 11.503099 31.654376 11.56526 31.171683 11.626953 30.708984 C 11.688646 30.236003 11.743511 29.772729 11.794922 29.320312 C 11.856615 28.867896 11.888672 28.411917 11.888672 27.949219 C 11.888672 27.57906 11.837197 27.224078 11.734375 26.884766 C 11.631553 26.545453 11.477128 26.236604 11.271484 25.958984 C 11.076123 25.671083 10.834776 25.424394 10.546875 25.21875 C 10.258974 25.013106 9.9287527 24.853339 9.5585938 24.740234 C 9.9287527 24.637412 10.258974 24.482988 10.546875 24.277344 C 10.834776 24.061418 11.076123 23.814729 11.271484 23.537109 C 11.477128 23.249208 11.631553 22.936969 11.734375 22.597656 C 11.837197 22.258344 11.888672 21.903362 11.888672 21.533203 C 11.888672 21.070504 11.856615 20.612573 11.794922 20.160156 C 11.743511 19.70774 11.688646 19.249808 11.626953 18.787109 C 11.56526 18.314128 11.503099 17.831436 11.441406 17.337891 C 11.389995 16.844345 11.363281 16.324253 11.363281 15.779297 C 11.363281 15.038979 11.539077 14.458679 11.888672 14.037109 C 12.238266 13.615539 12.753016 13.404297 13.431641 13.404297 L 13.539062 13.404297 C 13.611038 13.404297 13.692617 13.388268 13.785156 13.357422 C 13.887978 13.326575 13.980242 13.280443 14.0625 13.21875 C 14.144758 13.157057 14.217604 13.080821 14.279297 12.988281 C 14.34099 12.885459 14.371094 12.761138 14.371094 12.617188 L 14.371094 10.890625 L 13.583984 10.890625 z M 39.648438 13.458984 L 36.740234 16.365234 C 36.740211 16.365902 36.740258 16.36652 36.740234 16.367188 C 36.728302 16.700642 36.706412 17.025088 36.673828 17.337891 C 36.622417 17.831436 36.560257 18.314128 36.488281 18.787109 C 36.426588 19.249808 36.36977 19.70774 36.318359 20.160156 C 36.266948 20.612573 36.242188 21.070504 36.242188 21.533203 C 36.242188 21.903362 36.293662 22.258344 36.396484 22.597656 C 36.499306 22.936969 36.648388 23.249208 36.84375 23.537109 C 37.049394 23.814729 37.29074 24.061418 37.568359 24.277344 C 37.856261 24.482988 38.184529 24.637412 38.554688 24.740234 C 38.184529 24.853339 37.856261 25.013106 37.568359 25.21875 C 37.29074 25.424394 37.049394 25.671083 36.84375 25.958984 C 36.648388 26.236604 36.499306 26.545453 36.396484 26.884766 C 36.293662 27.224078 36.242188 27.57906 36.242188 27.949219 C 36.242188 28.411917 36.266948 28.867896 36.318359 29.320312 C 36.36977 29.772729 36.426588 30.236003 36.488281 30.708984 C 36.560257 31.171683 36.622417 31.654376 36.673828 32.158203 C 36.725239 32.651748 36.75 33.171841 36.75 33.716797 C 36.75 34.457115 36.576157 35.032072 36.226562 35.443359 C 35.88725 35.864929 35.372501 36.076172 34.683594 36.076172 L 34.591797 36.076172 C 34.519822 36.076172 34.4329 36.0922 34.330078 36.123047 C 34.237538 36.153893 34.148664 36.200026 34.066406 36.261719 C 33.984149 36.323412 33.913256 36.404991 33.851562 36.507812 C 33.789869 36.610634 33.757812 36.734956 33.757812 36.878906 L 33.757812 38.605469 L 34.544922 38.605469 C 35.511448 38.605469 36.349122 38.483101 37.058594 38.236328 C 37.768065 37.989555 38.355661 37.639917 38.818359 37.1875 C 39.281058 36.735083 39.620011 36.19023 39.835938 35.552734 C 40.062146 34.925521 40.173828 34.226243 40.173828 33.455078 C 40.173828 32.982097 40.138382 32.51348 40.066406 32.050781 C 40.004713 31.5778 39.93382 31.114526 39.851562 30.662109 C 39.779587 30.199411 39.712084 29.743432 39.650391 29.291016 C 39.588697 28.828317 39.558594 28.365042 39.558594 27.902344 C 39.558594 27.305976 39.691647 26.823284 39.958984 26.453125 C 40.236604 26.072684 40.68385 25.882812 41.300781 25.882812 L 41.300781 23.615234 C 40.68385 23.615234 40.236604 23.428753 39.958984 23.058594 C 39.691647 22.678153 39.558594 22.190117 39.558594 21.59375 C 39.558594 21.131051 39.588697 20.67312 39.650391 20.220703 C 39.712084 19.758004 39.779587 19.296683 39.851562 18.833984 C 39.93382 18.371286 40.004713 17.908011 40.066406 17.445312 C 40.138382 16.972332 40.173828 16.494982 40.173828 16.011719 C 40.173828 15.240554 40.062146 14.541276 39.835938 13.914062 C 39.781802 13.756812 39.718084 13.604602 39.648438 13.458984 z M 18.181641 13.466797 L 18.181641 25.896484 L 22.251953 21.828125 L 22.251953 16.689453 L 27.396484 16.689453 L 30.621094 13.466797 L 18.181641 13.466797 z M 28.808594 24.298828 L 27.904297 25.203125 L 28.808594 25.203125 L 28.808594 24.298828 z M 22.380859 30.724609 L 19.158203 33.947266 L 30.673828 33.947266 L 30.689453 30.724609 L 22.380859 30.724609 z " />
    <path
       id="path16"
       style="display:inline;fill:#000000;stroke-width:1.00157"
       d="M 40.550781,5.1074219 5.6464844,39.984375 8.5917969,42.951172 43.494141,8.0507813 Z" />
  </g>
</svg>
